<svg xmlns="http://www.w3.org/2000/svg" width="72" height="64" fill="none"><path fill="#D8AE5E" d="M38.7 22.3 56 37.1l-.6.4C53 39.1 50.4 40 48 40c-2.5 0-5.1-1-7.4-2.5a8 8 0 0 0-9.2 0A13.4 13.4 0 0 1 24 40c-1.3 0-2.7-.2-4-.7A28 28 0 0 1 48 12h8a4 4 0 1 1 0 8h-8c-3.4 0-6.5.8-9.3 2.3ZM20 20a8 8 0 1 1-16 0 8 8 0 0 1 16 0Zm18.3 20.7c2.8 2 6.3 3.3 9.7 3.3 3.4 0 7-1.4 9.7-3.3a4 4 0 0 1 4.9.3c1.8 1.4 4 2.6 6.3 3.1a4 4 0 0 1-1.8 7.8c-3-.7-5.6-2-7.3-3.1-3.6 2-7.7 3.2-11.8 3.2a24.7 24.7 0 0 1-12-3.3A28.6 28.6 0 0 1 24 52c-4.1 0-8.2-1.3-11.8-3.2-1.7 1-4.2 2.4-7.3 3.1a4 4 0 0 1-1.8-7.8c2.3-.5 4.5-1.6 6.3-3.1a4 4 0 0 1 5-.3c2.7 2 6.2 3.3 9.6 3.3 3.4 0 6.9-1.3 9.7-3.3a4 4 0 0 1 4.6 0Z"/></svg>