<svg xmlns="http://www.w3.org/2000/svg" width="73" height="64" fill="none"><g clip-path="url(#a)"><path fill="#D8AE5E" d="M4.1 4C2.1 4 .5 5.8.5 8s1.6 4 3.6 4v20c0 6.6 4.8 12 10.8 12v4h7.2v-4h21.6v4h7.2v-4c6 0 10.8-5.4 10.8-12V20c2 0 3.6-1.8 3.6-4s-1.6-4-3.6-4h-7.2c-2 0-3.6 1.8-3.6 4v5.2c0 3.7-2.8 6.8-6.2 6.8-8.4 0-16.3-4.9-20.8-12.9l-.5-.8A19.6 19.6 0 0 0 7.7 4H4.1Zm68.4 44c0-2.2-1.6-4-3.6-4s-3.6 1.8-3.6 4v1c0 1.7-1.2 3-2.7 3H7.7c-2 0-3.6 1.8-3.6 4s1.6 4 3.6 4h54.9c5.5 0 9.9-5 9.9-11v-1Z"/></g><defs><clipPath id="a"><path fill="#fff" d="M.5 0h72v64H.5z"/></clipPath></defs></svg>