<svg xmlns="http://www.w3.org/2000/svg" width="65" height="64" fill="none"><g clip-path="url(#a)"><path fill="#D8AE5E" d="M26.7.4a4 4 0 0 1 5.4 1.8l3.1 6.3 5.3 1a16 16 0 0 1 6.7 3L63 25a4 4 0 0 1-5 6.3l-9-7-9 4 4.2 3.4a10 10 0 0 1 3.4 9.9l-2.2 9.4a4 4 0 0 1-2 2.6l10.8 4.2 1.8.3h3.5a3 3 0 1 1 0 6H56c-1.4 0-2.7-.3-4-.7L8 46.4A11 11 0 0 1 4.2 44l-2.8-2.8A3 3 0 0 1 5.6 37l2.8 2.8c.5.5 1.1.9 1.8 1.1L13 42l-.3-.6a4 4 0 0 1 2.5-5l9.3-3.2v-6.6a8 8 0 0 1 4.4-7.2l5.7-2.8-1-.2A8 8 0 0 1 28 12l-3-6.2A4 4 0 0 1 26.6.4ZM18 43.8l19.9 7.6c-.3-.7-.4-1.5-.2-2.3l2.2-9.4a2 2 0 0 0-.7-2l-6.6-5.5v2.4a6 6 0 0 1-4 5.6l-10.6 3.6ZM54.5 0a6 6 0 1 1 0 12 6 6 0 0 1 0-12Z"/></g><defs><clipPath id="a"><path fill="#fff" d="M.5 0h64v64H.5z"/></clipPath></defs></svg>