<svg xmlns="http://www.w3.org/2000/svg" width="73" height="64" fill="none"><g clip-path="url(#a)"><path fill="#D8AE5E" d="M23.4 29.4a36.6 36.6 0 0 1 13.1 14 35 35 0 0 1 13.1-14A36.4 36.4 0 0 1 68.7 24H70c1.4 0 2.5 1.1 2.5 2.5C72.5 45 57.5 60 39 60h-5C15.5 60 .5 45 .5 26.5.5 25.1 1.6 24 3 24h1.3c7 0 13.5 2 19 5.4ZM38.2 4.7c2 2.1 7.6 9 10.5 20.6C44 28 39.8 31.6 36.5 36c-3.3-4.4-7.5-8-12.2-10.7A47.4 47.4 0 0 1 34.8 4.7c.5-.5 1-.7 1.7-.7.6 0 1.3.2 1.7.7Z"/></g><defs><clipPath id="a"><path fill="#fff" d="M.5 0h72v64H.5z"/></clipPath></defs></svg>