<svg xmlns="http://www.w3.org/2000/svg" width="57" height="64" fill="none"><g clip-path="url(#a)"><path fill="#D8AE5E" d="M26.8.7 8.2 21.2c-.4.5-.7 1.2-.7 2 0 1.5 1.3 2.8 2.9 2.8h3.1l-9.2 9.2c-.5.5-.8 1.2-.8 2 0 1.5 1.3 2.8 2.8 2.8h4.2L1.2 51.2A3 3 0 0 0 3.5 56h21v4a4 4 0 1 0 8 0v-4h21a3 3 0 0 0 2.3-4.8L46.5 40h4.2a2.8 2.8 0 0 0 2-4.8L43.5 26h3.1a2.9 2.9 0 0 0 2.1-4.8L30.3.7c-.4-.4-1-.7-1.7-.7-.6 0-1.3.3-1.7.7Z"/></g><defs><clipPath id="a"><path fill="#fff" d="M.5 0h56v64H.5z"/></clipPath></defs></svg>