<svg xmlns="http://www.w3.org/2000/svg" width="56" height="64" fill="none"><g clip-path="url(#a)"><path fill="#D8AE5E" d="M52 0c-2 0-16 4-16 22v14a8 8 0 0 0 8 8h4v16a4 4 0 1 0 8 0V4a4 4 0 0 0-4-4ZM8 2a2 2 0 0 0-1.8-2A2 2 0 0 0 4 1.6l-3.7 17A11 11 0 0 0 10 31.9V60a4 4 0 1 0 8 0V32a11 11 0 0 0 9.7-13.4L24 1.6A2 2 0 0 0 20 2v16.8a1.2 1.2 0 0 1-2.4 0L16 1.9C15.9.8 15 0 14 0a2 2 0 0 0-2 1.8l-1.5 17c-.1.7-.6 1.2-1.3 1.2-.6 0-1.2-.6-1.2-1.2V2Zm6 19Z"/></g><defs><clipPath id="a"><path fill="#fff" d="M0 0h56v64H0z"/></clipPath></defs></svg>