<svg xmlns="http://www.w3.org/2000/svg" width="48" height="64" fill="none"><g clip-path="url(#a)"><path fill="#D8AE5E" d="M24 6a6 6 0 1 1 12 0 6 6 0 0 1-12 0Zm6.4 22.8L28 38.4l6.2 6.2a6 6 0 0 1 1.8 4.2V60a4 4 0 1 1-8 0V49.7l-9.2-9.3a8 8 0 0 1-2.2-7.5l2.6-10.5c1-4.3 5.3-6.9 9.6-5.8 2.4.6 4.4 2 5.8 4L38 26H42v-3a3 3 0 1 1 6 0v38a3 3 0 1 1-6 0V34h-5a6 6 0 0 1-5-2.7l-1.6-2.5ZM10.1 59l4.6-17.3c.3.6.8 1 1.2 1.5l5.3 5.3L17.9 61a4 4 0 1 1-7.8-2Zm7-43.3-4.4 17.6a3 3 0 0 1-3.4 2.3l-6-1a3 3 0 0 1-2.4-3.8l3-11.4a10 10 0 0 1 9.7-7.4h.6a3 3 0 0 1 2.9 3.7Z"/></g><defs><clipPath id="a"><path fill="#fff" d="M0 0h48v64H0z"/></clipPath></defs></svg>