<svg xmlns="http://www.w3.org/2000/svg" width="32" height="32" fill="none"><g clip-path="url(#a)"><path fill="#D8AE5E" fill-rule="evenodd" d="M32 6.1A6 6 0 0 0 26 0H6a6 6 0 0 0-6 6.1V26A6 6 0 0 0 6 32h20a6 6 0 0 0 6-6.1V6Z" clip-rule="evenodd"/><path fill="#D8AE5E" fill-rule="evenodd" d="M0 19.9h16V32H0V19.9Z" clip-rule="evenodd"/><path fill="#fff" d="M14.5 21.2H12V18c0-.6.2-1 .8-1h1.7c1.3 0 2.1.7 2.1 2 0 1.4-.8 2.2-2 2.2ZM12 12.7v-.8c0-.8.3-1.1 1-1.2h1.2c1.2 0 1.9.7 1.9 1.9 0 .9-.5 1.9-1.8 1.9H12v-1.8Zm5.8 3.1-.4-.2.4-.4c.4-.4 1.2-1.3 1.2-3 0-2.4-1.8-4-4.7-4H10.6c-.9 0-1.6.7-1.6 1.6v14h5.3c3.3 0 5.3-1.8 5.3-4.5 0-1.5-.6-2.8-1.8-3.5Z"/><path fill="#F4F4F4" d="M21 21.9c0-1 .9-2 2-2 1 0 1.8 1 1.8 2s-.8 2-1.9 2a2 2 0 0 1-1.9-2Z"/></g><defs><clipPath id="a"><path fill="#fff" d="M0 0h32v32H0z"/></clipPath></defs></svg>