<svg width="61" height="62" viewBox="0 0 61 62" fill="none" xmlns="http://www.w3.org/2000/svg">
<mask id="mask0_14_4607" style="mask-type:luminance" maskUnits="userSpaceOnUse" x="0" y="0" width="61" height="62">
<path d="M0.161713 0.810913H60.9512V61.6129H0.161713V0.810913Z" fill="white"/>
</mask>
<g mask="url(#mask0_14_4607)">
<path d="M45.2835 54.9533L36.6297 44.3524C36.5921 44.3054 36.5545 44.2552 36.52 44.2208L31.5472 38.1286L35.7644 32.9615L50.388 50.8804C48.8579 52.423 47.1428 53.7869 45.2835 54.9533ZM25.9913 58.7816L30.0172 53.8465L34.1496 58.9165C32.9707 59.0732 31.7667 59.1579 30.5376 59.1579C28.995 59.1579 27.4743 59.0231 25.9913 58.7816ZM23.3293 58.211C21.1659 57.6278 19.0996 56.8 17.1808 55.7434L29.9921 40.0507L34.0744 45.0454L23.3293 58.211ZM43.1326 56.1573C41.173 57.1387 39.0848 57.9069 36.9088 58.4179L31.6068 51.9119L35.6452 46.9674L43.1326 56.1573ZM10.6998 50.8678L30.5502 26.5558L34.2092 31.0301L15.0769 54.4673C13.4966 53.4201 12.0387 52.2067 10.6998 50.8678ZM30.5502 3.244C45.5625 3.244 57.8408 15.1304 58.4711 29.986H53.7303C53.0625 17.9742 43.0824 8.33591 30.9515 8.2638C30.9045 8.2638 30.8543 8.2638 30.8167 8.2638C24.7779 8.2638 19.0651 10.6342 14.7132 14.936C10.6027 19.0089 8.20719 24.3077 7.89365 29.986H2.62929C3.26264 15.1304 15.5378 3.244 30.5502 3.244ZM53.6206 46.9674C53.122 47.6823 52.6016 48.3877 52.0403 49.0556L50.3409 46.9674H53.6206ZM57.0977 39.966C56.5773 41.5557 55.9188 43.0763 55.1287 44.5343H48.3719L44.6376 39.966H57.0977ZM52.5514 32.4159H58.4711C58.3989 34.1655 58.1575 35.8805 57.7656 37.5329H42.6466L38.4765 32.4159H52.5514ZM24.618 29.986H17.604C18.5541 23.6524 23.9627 18.7894 30.4279 18.6922C30.4906 18.6922 30.5627 18.6922 30.6223 18.6922C37.1032 18.6922 42.6936 23.6148 43.6531 29.986H36.4698L31.4751 23.8719C31.0142 23.2981 30.0516 23.2981 29.5907 23.8719L24.618 29.986ZM46.1112 29.986C45.1142 22.2039 38.2821 16.165 30.3934 16.2622C22.6019 16.3845 16.1335 22.3261 15.1615 29.986H10.3361C10.6528 24.963 12.7786 20.2724 16.4251 16.6761C20.3162 12.8227 25.4206 10.6937 30.8167 10.6937C30.8543 10.6937 30.9045 10.6937 30.939 10.6937C41.7342 10.7565 50.6325 19.3005 51.3004 29.986H46.1112ZM18.4443 37.5455C18.3942 37.5329 18.3471 37.5329 18.297 37.5329H3.32221C2.93342 35.8805 2.7014 34.1655 2.61674 32.4159H22.6238L18.4443 37.5455ZM12.7441 44.5343H5.98418C5.19406 43.0889 4.53875 41.5557 4.01514 39.966H16.4753L12.7441 44.5343ZM7.47978 46.9674H10.7626L9.06003 49.0556C8.50192 48.3752 7.96577 47.6823 7.47978 46.9674ZM56.7936 46.5033C56.8689 46.4061 56.941 46.2964 56.988 46.1773C58.2296 44.0013 59.2016 41.6529 59.882 39.1853C59.9071 39.1132 59.929 39.041 59.9416 38.9689C60.6 36.4888 60.9512 33.8864 60.9512 31.1994C60.9386 14.4374 47.3121 0.810913 30.5502 0.810913C13.7882 0.810913 0.161713 14.4374 0.161713 31.1994C0.161713 33.8864 0.512879 36.4763 1.17132 38.9564C1.18386 39.0536 1.20894 39.1382 1.24343 39.2229C1.91128 41.6779 2.88325 44.0107 4.12488 46.1773C4.17191 46.2964 4.23462 46.4061 4.31928 46.5033C5.40099 48.3532 6.66457 50.0777 8.10059 51.658C8.16016 51.7426 8.23228 51.8273 8.31693 51.89C8.32947 51.89 8.32947 51.9025 8.34202 51.9025C10.1794 53.8716 12.2582 55.5835 14.5407 57.0195C14.5533 57.0321 14.5533 57.0321 14.5658 57.0446C14.5909 57.0666 14.6285 57.0791 14.663 57.1042C17.325 58.744 20.2566 59.9856 23.3669 60.7381C23.392 60.7507 23.414 60.7507 23.4516 60.7632C25.7373 61.3088 28.1202 61.6129 30.5627 61.6129C35.9964 61.6129 41.1008 60.1675 45.5249 57.6623C45.6221 57.6278 45.7099 57.5776 45.7946 57.5181C45.7946 57.5181 45.7946 57.5055 45.8071 57.5055C48.3938 55.9974 50.7517 54.113 52.7834 51.937C52.796 51.9245 52.796 51.9245 52.8085 51.9245C52.8932 51.8524 52.9653 51.7802 53.0248 51.6956C54.4483 50.0777 55.7119 48.3532 56.7936 46.5033Z" fill="#D8AE5E"/>
</g>
</svg>
